<mxfile host="app.diagrams.net" modified="2022-05-30T12:08:26.497Z" agent="5.0 (Windows NT 10.0; Win64; x64) AppleWebKit/537.36 (KHTML, like Gecko) Chrome/102.0.0.0 Safari/537.36" etag="H1YgcflO1Xzq5A6FFVv4" version="18.1.3" type="github">
  <diagram id="o5gYx8qm375P-UALuS2-" name="Page-1">
    <mxGraphModel dx="1221" dy="688" grid="1" gridSize="10" guides="1" tooltips="1" connect="1" arrows="1" fold="1" page="1" pageScale="1" pageWidth="827" pageHeight="1169" math="0" shadow="0">
      <root>
        <mxCell id="0" />
        <mxCell id="1" parent="0" />
        <mxCell id="SnW519qvEG8OO5aZFgQu-91" value="" style="rounded=0;whiteSpace=wrap;html=1;labelBackgroundColor=none;fontSize=14;fontColor=#000000;fillColor=#E6E6E6;strokeWidth=2;" vertex="1" parent="1">
          <mxGeometry x="130" y="30" width="650" height="656" as="geometry" />
        </mxCell>
        <mxCell id="SnW519qvEG8OO5aZFgQu-1" value="&lt;font style=&quot;font-size: 18px;&quot;&gt;Control&lt;/font&gt;" style="rounded=0;whiteSpace=wrap;html=1;" vertex="1" parent="1">
          <mxGeometry x="132" y="127" width="80" height="50" as="geometry" />
        </mxCell>
        <mxCell id="SnW519qvEG8OO5aZFgQu-3" value="&lt;font style=&quot;font-size: 18px;&quot;&gt;Memory&lt;br&gt;Access&lt;br&gt;&lt;/font&gt;" style="rounded=0;whiteSpace=wrap;html=1;" vertex="1" parent="1">
          <mxGeometry x="132" y="505" width="80" height="50" as="geometry" />
        </mxCell>
        <mxCell id="SnW519qvEG8OO5aZFgQu-11" value="" style="group" vertex="1" connectable="0" parent="1">
          <mxGeometry x="297" y="247" width="110" height="90" as="geometry" />
        </mxCell>
        <mxCell id="SnW519qvEG8OO5aZFgQu-4" value="" style="rounded=0;whiteSpace=wrap;html=1;fontSize=18;" vertex="1" parent="SnW519qvEG8OO5aZFgQu-11">
          <mxGeometry width="110" height="90" as="geometry" />
        </mxCell>
        <mxCell id="SnW519qvEG8OO5aZFgQu-5" value="Iterator" style="text;html=1;strokeColor=none;fillColor=none;align=center;verticalAlign=middle;whiteSpace=wrap;rounded=0;fontSize=18;" vertex="1" parent="SnW519qvEG8OO5aZFgQu-11">
          <mxGeometry x="25" width="60" height="30" as="geometry" />
        </mxCell>
        <mxCell id="SnW519qvEG8OO5aZFgQu-8" value="" style="group" vertex="1" connectable="0" parent="SnW519qvEG8OO5aZFgQu-11">
          <mxGeometry x="7.5" y="40" width="95" height="40" as="geometry" />
        </mxCell>
        <mxCell id="SnW519qvEG8OO5aZFgQu-6" value="" style="strokeWidth=2;html=1;shape=mxgraph.flowchart.direct_data;whiteSpace=wrap;fontSize=18;rotation=-180;fillColor=#999999;" vertex="1" parent="SnW519qvEG8OO5aZFgQu-8">
          <mxGeometry width="95" height="40" as="geometry" />
        </mxCell>
        <mxCell id="SnW519qvEG8OO5aZFgQu-7" value="&lt;font style=&quot;font-size: 14px;&quot;&gt;Data&lt;br&gt;FIFO&lt;/font&gt;" style="text;html=1;strokeColor=none;fillColor=none;align=center;verticalAlign=middle;whiteSpace=wrap;rounded=0;fontSize=18;" vertex="1" parent="SnW519qvEG8OO5aZFgQu-8">
          <mxGeometry x="20" y="5" width="60" height="30" as="geometry" />
        </mxCell>
        <mxCell id="SnW519qvEG8OO5aZFgQu-12" value="" style="group" vertex="1" connectable="0" parent="1">
          <mxGeometry x="297" y="366" width="110" height="90" as="geometry" />
        </mxCell>
        <mxCell id="SnW519qvEG8OO5aZFgQu-13" value="" style="rounded=0;whiteSpace=wrap;html=1;fontSize=18;" vertex="1" parent="SnW519qvEG8OO5aZFgQu-12">
          <mxGeometry width="110" height="90" as="geometry" />
        </mxCell>
        <mxCell id="SnW519qvEG8OO5aZFgQu-14" value="Iterator" style="text;html=1;strokeColor=none;fillColor=none;align=center;verticalAlign=middle;whiteSpace=wrap;rounded=0;fontSize=18;" vertex="1" parent="SnW519qvEG8OO5aZFgQu-12">
          <mxGeometry x="25" width="60" height="30" as="geometry" />
        </mxCell>
        <mxCell id="SnW519qvEG8OO5aZFgQu-15" value="" style="group" vertex="1" connectable="0" parent="SnW519qvEG8OO5aZFgQu-12">
          <mxGeometry x="7.5" y="40" width="95" height="40" as="geometry" />
        </mxCell>
        <mxCell id="SnW519qvEG8OO5aZFgQu-16" value="" style="strokeWidth=2;html=1;shape=mxgraph.flowchart.direct_data;whiteSpace=wrap;fontSize=18;rotation=-180;fillColor=#999999;" vertex="1" parent="SnW519qvEG8OO5aZFgQu-15">
          <mxGeometry width="95" height="40" as="geometry" />
        </mxCell>
        <mxCell id="SnW519qvEG8OO5aZFgQu-17" value="&lt;font style=&quot;font-size: 14px;&quot;&gt;Data&lt;br&gt;FIFO&lt;/font&gt;" style="text;html=1;strokeColor=none;fillColor=none;align=center;verticalAlign=middle;whiteSpace=wrap;rounded=0;fontSize=18;" vertex="1" parent="SnW519qvEG8OO5aZFgQu-15">
          <mxGeometry x="20" y="5" width="60" height="30" as="geometry" />
        </mxCell>
        <mxCell id="SnW519qvEG8OO5aZFgQu-18" value="" style="group" vertex="1" connectable="0" parent="1">
          <mxGeometry x="442" y="117" width="110" height="90" as="geometry" />
        </mxCell>
        <mxCell id="SnW519qvEG8OO5aZFgQu-19" value="" style="rounded=0;whiteSpace=wrap;html=1;fontSize=18;" vertex="1" parent="SnW519qvEG8OO5aZFgQu-18">
          <mxGeometry width="110" height="90" as="geometry" />
        </mxCell>
        <mxCell id="SnW519qvEG8OO5aZFgQu-20" value="Iterator" style="text;html=1;strokeColor=none;fillColor=none;align=center;verticalAlign=middle;whiteSpace=wrap;rounded=0;fontSize=18;" vertex="1" parent="SnW519qvEG8OO5aZFgQu-18">
          <mxGeometry x="25" width="60" height="30" as="geometry" />
        </mxCell>
        <mxCell id="SnW519qvEG8OO5aZFgQu-21" value="" style="group" vertex="1" connectable="0" parent="SnW519qvEG8OO5aZFgQu-18">
          <mxGeometry x="7.5" y="40" width="95" height="40" as="geometry" />
        </mxCell>
        <mxCell id="SnW519qvEG8OO5aZFgQu-22" value="" style="strokeWidth=2;html=1;shape=mxgraph.flowchart.direct_data;whiteSpace=wrap;fontSize=18;rotation=-180;fillColor=#999999;" vertex="1" parent="SnW519qvEG8OO5aZFgQu-21">
          <mxGeometry width="95" height="40" as="geometry" />
        </mxCell>
        <mxCell id="SnW519qvEG8OO5aZFgQu-23" value="&lt;font style=&quot;font-size: 14px;&quot;&gt;Data&lt;br&gt;FIFO&lt;/font&gt;" style="text;html=1;strokeColor=none;fillColor=none;align=center;verticalAlign=middle;whiteSpace=wrap;rounded=0;fontSize=18;" vertex="1" parent="SnW519qvEG8OO5aZFgQu-21">
          <mxGeometry x="20" y="5" width="60" height="30" as="geometry" />
        </mxCell>
        <mxCell id="SnW519qvEG8OO5aZFgQu-25" value="" style="group" vertex="1" connectable="0" parent="1">
          <mxGeometry x="612" y="117" width="110" height="90" as="geometry" />
        </mxCell>
        <mxCell id="SnW519qvEG8OO5aZFgQu-26" value="" style="rounded=0;whiteSpace=wrap;html=1;fontSize=18;" vertex="1" parent="SnW519qvEG8OO5aZFgQu-25">
          <mxGeometry width="110" height="90" as="geometry" />
        </mxCell>
        <mxCell id="SnW519qvEG8OO5aZFgQu-27" value="Iterator" style="text;html=1;strokeColor=none;fillColor=none;align=center;verticalAlign=middle;whiteSpace=wrap;rounded=0;fontSize=18;" vertex="1" parent="SnW519qvEG8OO5aZFgQu-25">
          <mxGeometry x="25" width="60" height="30" as="geometry" />
        </mxCell>
        <mxCell id="SnW519qvEG8OO5aZFgQu-28" value="" style="group" vertex="1" connectable="0" parent="SnW519qvEG8OO5aZFgQu-25">
          <mxGeometry x="7.5" y="40" width="95" height="40" as="geometry" />
        </mxCell>
        <mxCell id="SnW519qvEG8OO5aZFgQu-29" value="" style="strokeWidth=2;html=1;shape=mxgraph.flowchart.direct_data;whiteSpace=wrap;fontSize=18;rotation=-180;fillColor=#999999;" vertex="1" parent="SnW519qvEG8OO5aZFgQu-28">
          <mxGeometry width="95" height="40" as="geometry" />
        </mxCell>
        <mxCell id="SnW519qvEG8OO5aZFgQu-30" value="&lt;font style=&quot;font-size: 14px;&quot;&gt;Data&lt;br&gt;FIFO&lt;/font&gt;" style="text;html=1;strokeColor=none;fillColor=none;align=center;verticalAlign=middle;whiteSpace=wrap;rounded=0;fontSize=18;" vertex="1" parent="SnW519qvEG8OO5aZFgQu-28">
          <mxGeometry x="20" y="5" width="60" height="30" as="geometry" />
        </mxCell>
        <mxCell id="SnW519qvEG8OO5aZFgQu-35" style="edgeStyle=orthogonalEdgeStyle;rounded=0;orthogonalLoop=1;jettySize=auto;html=1;exitX=1;exitY=0.5;exitDx=0;exitDy=0;entryX=0;entryY=0.5;entryDx=0;entryDy=0;fontSize=18;strokeWidth=2;" edge="1" parent="1" source="SnW519qvEG8OO5aZFgQu-31" target="SnW519qvEG8OO5aZFgQu-34">
          <mxGeometry relative="1" as="geometry" />
        </mxCell>
        <mxCell id="SnW519qvEG8OO5aZFgQu-39" style="edgeStyle=orthogonalEdgeStyle;rounded=0;orthogonalLoop=1;jettySize=auto;html=1;exitX=0.5;exitY=1;exitDx=0;exitDy=0;entryX=0.5;entryY=0;entryDx=0;entryDy=0;fontSize=18;strokeWidth=2;" edge="1" parent="1" source="SnW519qvEG8OO5aZFgQu-31" target="SnW519qvEG8OO5aZFgQu-37">
          <mxGeometry relative="1" as="geometry" />
        </mxCell>
        <mxCell id="SnW519qvEG8OO5aZFgQu-58" style="edgeStyle=orthogonalEdgeStyle;rounded=0;orthogonalLoop=1;jettySize=auto;html=1;exitX=0.25;exitY=1;exitDx=0;exitDy=0;fontSize=18;strokeWidth=1;entryX=0.25;entryY=0;entryDx=0;entryDy=0;" edge="1" parent="1" source="SnW519qvEG8OO5aZFgQu-31" target="SnW519qvEG8OO5aZFgQu-51">
          <mxGeometry relative="1" as="geometry">
            <mxPoint x="652" y="487" as="targetPoint" />
            <Array as="points">
              <mxPoint x="477" y="457" />
              <mxPoint x="640" y="457" />
            </Array>
          </mxGeometry>
        </mxCell>
        <mxCell id="SnW519qvEG8OO5aZFgQu-60" style="edgeStyle=orthogonalEdgeStyle;rounded=0;orthogonalLoop=1;jettySize=auto;html=1;exitX=0.25;exitY=1;exitDx=0;exitDy=0;entryX=0.32;entryY=-0.011;entryDx=0;entryDy=0;entryPerimeter=0;fontSize=18;strokeWidth=1;" edge="1" parent="1" source="SnW519qvEG8OO5aZFgQu-31" target="SnW519qvEG8OO5aZFgQu-44">
          <mxGeometry relative="1" as="geometry" />
        </mxCell>
        <mxCell id="SnW519qvEG8OO5aZFgQu-31" value="&lt;font style=&quot;font-size: 18px;&quot;&gt;Match&lt;br&gt;Unit&lt;/font&gt;" style="rounded=0;whiteSpace=wrap;html=1;fontSize=14;fillColor=#FFFFFF;" vertex="1" parent="1">
          <mxGeometry x="457" y="254.5" width="80" height="75" as="geometry" />
        </mxCell>
        <mxCell id="SnW519qvEG8OO5aZFgQu-32" style="edgeStyle=orthogonalEdgeStyle;rounded=0;orthogonalLoop=1;jettySize=auto;html=1;exitX=1;exitY=0.5;exitDx=0;exitDy=0;entryX=0;entryY=0.5;entryDx=0;entryDy=0;fontSize=18;strokeWidth=2;" edge="1" parent="1" source="SnW519qvEG8OO5aZFgQu-4" target="SnW519qvEG8OO5aZFgQu-31">
          <mxGeometry relative="1" as="geometry" />
        </mxCell>
        <mxCell id="SnW519qvEG8OO5aZFgQu-33" style="edgeStyle=orthogonalEdgeStyle;rounded=0;orthogonalLoop=1;jettySize=auto;html=1;exitX=0.5;exitY=1;exitDx=0;exitDy=0;fontSize=18;strokeWidth=2;" edge="1" parent="1" source="SnW519qvEG8OO5aZFgQu-19" target="SnW519qvEG8OO5aZFgQu-31">
          <mxGeometry relative="1" as="geometry" />
        </mxCell>
        <mxCell id="SnW519qvEG8OO5aZFgQu-42" style="edgeStyle=orthogonalEdgeStyle;rounded=0;orthogonalLoop=1;jettySize=auto;html=1;exitX=0.5;exitY=1;exitDx=0;exitDy=0;entryX=0.5;entryY=0;entryDx=0;entryDy=0;fontSize=18;strokeWidth=2;" edge="1" parent="1" source="SnW519qvEG8OO5aZFgQu-34" target="SnW519qvEG8OO5aZFgQu-40">
          <mxGeometry relative="1" as="geometry" />
        </mxCell>
        <mxCell id="SnW519qvEG8OO5aZFgQu-61" style="edgeStyle=orthogonalEdgeStyle;rounded=0;orthogonalLoop=1;jettySize=auto;html=1;exitX=0.75;exitY=1;exitDx=0;exitDy=0;entryX=0.68;entryY=-0.002;entryDx=0;entryDy=0;entryPerimeter=0;fontSize=18;strokeWidth=1;" edge="1" parent="1" source="SnW519qvEG8OO5aZFgQu-34" target="SnW519qvEG8OO5aZFgQu-51">
          <mxGeometry relative="1" as="geometry" />
        </mxCell>
        <mxCell id="SnW519qvEG8OO5aZFgQu-62" style="edgeStyle=orthogonalEdgeStyle;rounded=0;orthogonalLoop=1;jettySize=auto;html=1;exitX=0.75;exitY=1;exitDx=0;exitDy=0;fontSize=18;strokeWidth=1;entryX=0.75;entryY=0;entryDx=0;entryDy=0;" edge="1" parent="1" source="SnW519qvEG8OO5aZFgQu-34" target="SnW519qvEG8OO5aZFgQu-44">
          <mxGeometry relative="1" as="geometry">
            <mxPoint x="562" y="487" as="targetPoint" />
            <Array as="points">
              <mxPoint x="687" y="487" />
              <mxPoint x="525" y="487" />
            </Array>
          </mxGeometry>
        </mxCell>
        <mxCell id="SnW519qvEG8OO5aZFgQu-34" value="&lt;font style=&quot;font-size: 18px;&quot;&gt;Match&lt;br&gt;Unit&lt;/font&gt;" style="rounded=0;whiteSpace=wrap;html=1;fontSize=14;fillColor=#FFFFFF;" vertex="1" parent="1">
          <mxGeometry x="627" y="254.5" width="80" height="75" as="geometry" />
        </mxCell>
        <mxCell id="SnW519qvEG8OO5aZFgQu-36" style="edgeStyle=orthogonalEdgeStyle;rounded=0;orthogonalLoop=1;jettySize=auto;html=1;exitX=0.5;exitY=1;exitDx=0;exitDy=0;fontSize=18;strokeWidth=2;" edge="1" parent="1" source="SnW519qvEG8OO5aZFgQu-26" target="SnW519qvEG8OO5aZFgQu-34">
          <mxGeometry relative="1" as="geometry" />
        </mxCell>
        <mxCell id="SnW519qvEG8OO5aZFgQu-41" style="edgeStyle=orthogonalEdgeStyle;rounded=0;orthogonalLoop=1;jettySize=auto;html=1;exitX=1;exitY=0.5;exitDx=0;exitDy=0;entryX=0;entryY=0.5;entryDx=0;entryDy=0;fontSize=18;strokeWidth=2;" edge="1" parent="1" source="SnW519qvEG8OO5aZFgQu-37" target="SnW519qvEG8OO5aZFgQu-40">
          <mxGeometry relative="1" as="geometry" />
        </mxCell>
        <mxCell id="SnW519qvEG8OO5aZFgQu-59" style="edgeStyle=orthogonalEdgeStyle;rounded=0;orthogonalLoop=1;jettySize=auto;html=1;exitX=0.5;exitY=1;exitDx=0;exitDy=0;entryX=0.5;entryY=0;entryDx=0;entryDy=0;fontSize=18;strokeWidth=1;" edge="1" parent="1" source="SnW519qvEG8OO5aZFgQu-37" target="SnW519qvEG8OO5aZFgQu-44">
          <mxGeometry relative="1" as="geometry" />
        </mxCell>
        <mxCell id="SnW519qvEG8OO5aZFgQu-63" style="edgeStyle=orthogonalEdgeStyle;rounded=0;orthogonalLoop=1;jettySize=auto;html=1;exitX=0.5;exitY=1;exitDx=0;exitDy=0;entryX=0.389;entryY=-0.002;entryDx=0;entryDy=0;entryPerimeter=0;fontSize=18;strokeWidth=1;" edge="1" parent="1" source="SnW519qvEG8OO5aZFgQu-37" target="SnW519qvEG8OO5aZFgQu-51">
          <mxGeometry relative="1" as="geometry">
            <Array as="points">
              <mxPoint x="497" y="467" />
              <mxPoint x="655" y="467" />
            </Array>
          </mxGeometry>
        </mxCell>
        <mxCell id="SnW519qvEG8OO5aZFgQu-37" value="&lt;font style=&quot;font-size: 18px;&quot;&gt;Match&lt;br&gt;Unit&lt;/font&gt;" style="rounded=0;whiteSpace=wrap;html=1;fontSize=14;fillColor=#FFFFFF;" vertex="1" parent="1">
          <mxGeometry x="457" y="373.5" width="80" height="75" as="geometry" />
        </mxCell>
        <mxCell id="SnW519qvEG8OO5aZFgQu-38" style="edgeStyle=orthogonalEdgeStyle;rounded=0;orthogonalLoop=1;jettySize=auto;html=1;exitX=1;exitY=0.5;exitDx=0;exitDy=0;entryX=0;entryY=0.5;entryDx=0;entryDy=0;fontSize=18;strokeWidth=2;" edge="1" parent="1" source="SnW519qvEG8OO5aZFgQu-13" target="SnW519qvEG8OO5aZFgQu-37">
          <mxGeometry relative="1" as="geometry" />
        </mxCell>
        <mxCell id="SnW519qvEG8OO5aZFgQu-56" style="edgeStyle=orthogonalEdgeStyle;rounded=0;orthogonalLoop=1;jettySize=auto;html=1;exitX=0.5;exitY=1;exitDx=0;exitDy=0;entryX=0.5;entryY=0;entryDx=0;entryDy=0;fontSize=18;strokeWidth=1;" edge="1" parent="1" source="SnW519qvEG8OO5aZFgQu-40" target="SnW519qvEG8OO5aZFgQu-51">
          <mxGeometry relative="1" as="geometry" />
        </mxCell>
        <mxCell id="SnW519qvEG8OO5aZFgQu-64" style="edgeStyle=orthogonalEdgeStyle;rounded=0;orthogonalLoop=1;jettySize=auto;html=1;exitX=0.5;exitY=1;exitDx=0;exitDy=0;entryX=0.64;entryY=-0.002;entryDx=0;entryDy=0;entryPerimeter=0;fontSize=18;strokeWidth=1;" edge="1" parent="1" source="SnW519qvEG8OO5aZFgQu-40" target="SnW519qvEG8OO5aZFgQu-44">
          <mxGeometry relative="1" as="geometry">
            <Array as="points">
              <mxPoint x="667" y="477" />
              <mxPoint x="512" y="477" />
            </Array>
          </mxGeometry>
        </mxCell>
        <mxCell id="SnW519qvEG8OO5aZFgQu-40" value="&lt;font style=&quot;font-size: 18px;&quot;&gt;Match&lt;br&gt;Unit&lt;/font&gt;" style="rounded=0;whiteSpace=wrap;html=1;fontSize=14;fillColor=#FFFFFF;" vertex="1" parent="1">
          <mxGeometry x="627" y="373.5" width="80" height="75" as="geometry" />
        </mxCell>
        <mxCell id="SnW519qvEG8OO5aZFgQu-43" value="" style="group" vertex="1" connectable="0" parent="1">
          <mxGeometry x="442" y="505" width="110" height="90" as="geometry" />
        </mxCell>
        <mxCell id="SnW519qvEG8OO5aZFgQu-44" value="" style="rounded=0;whiteSpace=wrap;html=1;fontSize=18;" vertex="1" parent="SnW519qvEG8OO5aZFgQu-43">
          <mxGeometry width="110" height="90" as="geometry" />
        </mxCell>
        <mxCell id="SnW519qvEG8OO5aZFgQu-45" value="Collector" style="text;html=1;strokeColor=none;fillColor=none;align=center;verticalAlign=middle;whiteSpace=wrap;rounded=0;fontSize=18;" vertex="1" parent="SnW519qvEG8OO5aZFgQu-43">
          <mxGeometry x="25" y="3" width="60" height="30" as="geometry" />
        </mxCell>
        <mxCell id="SnW519qvEG8OO5aZFgQu-46" value="" style="group" vertex="1" connectable="0" parent="SnW519qvEG8OO5aZFgQu-43">
          <mxGeometry x="7.5" y="40" width="95" height="40" as="geometry" />
        </mxCell>
        <mxCell id="SnW519qvEG8OO5aZFgQu-47" value="" style="strokeWidth=2;html=1;shape=mxgraph.flowchart.direct_data;whiteSpace=wrap;fontSize=18;rotation=-180;fillColor=#999999;" vertex="1" parent="SnW519qvEG8OO5aZFgQu-46">
          <mxGeometry width="95" height="40" as="geometry" />
        </mxCell>
        <mxCell id="SnW519qvEG8OO5aZFgQu-48" value="&lt;font style=&quot;font-size: 14px;&quot;&gt;Data&lt;br&gt;FIFO&lt;/font&gt;" style="text;html=1;strokeColor=none;fillColor=none;align=center;verticalAlign=middle;whiteSpace=wrap;rounded=0;fontSize=18;" vertex="1" parent="SnW519qvEG8OO5aZFgQu-46">
          <mxGeometry x="20" y="5" width="60" height="30" as="geometry" />
        </mxCell>
        <mxCell id="SnW519qvEG8OO5aZFgQu-50" value="" style="group" vertex="1" connectable="0" parent="1">
          <mxGeometry x="612" y="505" width="110" height="90" as="geometry" />
        </mxCell>
        <mxCell id="SnW519qvEG8OO5aZFgQu-51" value="" style="rounded=0;whiteSpace=wrap;html=1;fontSize=18;" vertex="1" parent="SnW519qvEG8OO5aZFgQu-50">
          <mxGeometry width="110" height="90" as="geometry" />
        </mxCell>
        <mxCell id="SnW519qvEG8OO5aZFgQu-52" value="Collector" style="text;html=1;strokeColor=none;fillColor=none;align=center;verticalAlign=middle;whiteSpace=wrap;rounded=0;fontSize=18;" vertex="1" parent="SnW519qvEG8OO5aZFgQu-50">
          <mxGeometry x="25" y="2" width="60" height="30" as="geometry" />
        </mxCell>
        <mxCell id="SnW519qvEG8OO5aZFgQu-53" value="" style="group" vertex="1" connectable="0" parent="SnW519qvEG8OO5aZFgQu-50">
          <mxGeometry x="7.5" y="40" width="95" height="40" as="geometry" />
        </mxCell>
        <mxCell id="SnW519qvEG8OO5aZFgQu-54" value="" style="strokeWidth=2;html=1;shape=mxgraph.flowchart.direct_data;whiteSpace=wrap;fontSize=18;rotation=-180;fillColor=#999999;" vertex="1" parent="SnW519qvEG8OO5aZFgQu-53">
          <mxGeometry width="95" height="40" as="geometry" />
        </mxCell>
        <mxCell id="SnW519qvEG8OO5aZFgQu-55" value="&lt;font style=&quot;font-size: 14px;&quot;&gt;Data&lt;br&gt;FIFO&lt;/font&gt;" style="text;html=1;strokeColor=none;fillColor=none;align=center;verticalAlign=middle;whiteSpace=wrap;rounded=0;fontSize=18;" vertex="1" parent="SnW519qvEG8OO5aZFgQu-53">
          <mxGeometry x="20" y="5" width="60" height="30" as="geometry" />
        </mxCell>
        <mxCell id="SnW519qvEG8OO5aZFgQu-65" value="" style="shape=flexArrow;endArrow=classic;startArrow=classic;html=1;rounded=0;fontSize=18;strokeWidth=1;fillColor=#666666;" edge="1" parent="1">
          <mxGeometry width="100" height="100" relative="1" as="geometry">
            <mxPoint x="278" y="647" as="sourcePoint" />
            <mxPoint x="278" y="57" as="targetPoint" />
          </mxGeometry>
        </mxCell>
        <mxCell id="SnW519qvEG8OO5aZFgQu-66" value="" style="shape=flexArrow;endArrow=classic;startArrow=classic;html=1;rounded=0;fontSize=18;strokeWidth=1;fillColor=#666666;" edge="1" parent="1">
          <mxGeometry width="100" height="100" relative="1" as="geometry">
            <mxPoint x="248" y="97" as="sourcePoint" />
            <mxPoint x="748" y="97" as="targetPoint" />
          </mxGeometry>
        </mxCell>
        <mxCell id="SnW519qvEG8OO5aZFgQu-68" value="" style="shape=flexArrow;endArrow=classic;startArrow=classic;html=1;rounded=0;fontSize=18;strokeWidth=1;fillColor=#666666;" edge="1" parent="1">
          <mxGeometry width="100" height="100" relative="1" as="geometry">
            <mxPoint x="247" y="611" as="sourcePoint" />
            <mxPoint x="747" y="611" as="targetPoint" />
          </mxGeometry>
        </mxCell>
        <mxCell id="SnW519qvEG8OO5aZFgQu-70" value="" style="shape=flexArrow;endArrow=classic;startArrow=classic;html=1;rounded=0;fontSize=18;strokeWidth=1;fillColor=#666666;endWidth=12;endSize=2.47;startWidth=12;startSize=2.47;width=4;" edge="1" parent="1">
          <mxGeometry width="100" height="100" relative="1" as="geometry">
            <mxPoint x="492" y="117" as="sourcePoint" />
            <mxPoint x="492" y="77" as="targetPoint" />
          </mxGeometry>
        </mxCell>
        <mxCell id="SnW519qvEG8OO5aZFgQu-71" value="" style="shape=flexArrow;endArrow=classic;startArrow=classic;html=1;rounded=0;fontSize=18;strokeWidth=1;fillColor=#666666;endWidth=12;endSize=2.47;startWidth=12;startSize=2.47;width=4;exitX=0.5;exitY=0;exitDx=0;exitDy=0;" edge="1" parent="1" source="SnW519qvEG8OO5aZFgQu-26">
          <mxGeometry width="100" height="100" relative="1" as="geometry">
            <mxPoint x="502" y="127" as="sourcePoint" />
            <mxPoint x="667" y="77" as="targetPoint" />
          </mxGeometry>
        </mxCell>
        <mxCell id="SnW519qvEG8OO5aZFgQu-72" value="" style="shape=flexArrow;endArrow=classic;startArrow=classic;html=1;rounded=0;fontSize=18;strokeWidth=1;fillColor=#666666;endWidth=12;endSize=2.47;startWidth=12;startSize=2.47;width=4;" edge="1" parent="1">
          <mxGeometry width="100" height="100" relative="1" as="geometry">
            <mxPoint x="498" y="633" as="sourcePoint" />
            <mxPoint x="498" y="593" as="targetPoint" />
          </mxGeometry>
        </mxCell>
        <mxCell id="SnW519qvEG8OO5aZFgQu-73" value="" style="shape=flexArrow;endArrow=classic;startArrow=classic;html=1;rounded=0;fontSize=18;strokeWidth=1;fillColor=#666666;endWidth=12;endSize=2.47;startWidth=12;startSize=2.47;width=4;entryX=0.5;entryY=1;entryDx=0;entryDy=0;" edge="1" parent="1">
          <mxGeometry width="100" height="100" relative="1" as="geometry">
            <mxPoint x="667" y="634" as="sourcePoint" />
            <mxPoint x="667" y="592" as="targetPoint" />
          </mxGeometry>
        </mxCell>
        <mxCell id="SnW519qvEG8OO5aZFgQu-74" value="" style="shape=flexArrow;endArrow=classic;startArrow=classic;html=1;rounded=0;fontSize=18;strokeWidth=1;fillColor=#666666;exitX=1;exitY=0.5;exitDx=0;exitDy=0;width=18;endSize=6.33;" edge="1" parent="1" source="SnW519qvEG8OO5aZFgQu-1">
          <mxGeometry width="100" height="100" relative="1" as="geometry">
            <mxPoint x="202" y="217" as="sourcePoint" />
            <mxPoint x="322" y="152" as="targetPoint" />
          </mxGeometry>
        </mxCell>
        <mxCell id="SnW519qvEG8OO5aZFgQu-76" value="&lt;font color=&quot;#ffffff&quot; style=&quot;font-size: 14px;&quot;&gt;AXI4-Lite&lt;/font&gt;" style="text;html=1;strokeColor=none;fillColor=none;align=center;verticalAlign=middle;whiteSpace=wrap;rounded=0;fontSize=18;" vertex="1" parent="1">
          <mxGeometry x="225" y="136" width="90" height="30" as="geometry" />
        </mxCell>
        <mxCell id="SnW519qvEG8OO5aZFgQu-79" value="" style="shape=flexArrow;endArrow=classic;startArrow=classic;html=1;rounded=0;fontSize=18;strokeWidth=1;fillColor=#666666;exitX=1;exitY=0.5;exitDx=0;exitDy=0;width=18;endSize=6.33;" edge="1" parent="1">
          <mxGeometry width="100" height="100" relative="1" as="geometry">
            <mxPoint x="212" y="531" as="sourcePoint" />
            <mxPoint x="322" y="531" as="targetPoint" />
          </mxGeometry>
        </mxCell>
        <mxCell id="SnW519qvEG8OO5aZFgQu-80" value="&lt;font color=&quot;#ffffff&quot; style=&quot;font-size: 14px;&quot;&gt;AXI4&lt;/font&gt;" style="text;html=1;strokeColor=none;fillColor=none;align=center;verticalAlign=middle;whiteSpace=wrap;rounded=0;fontSize=18;" vertex="1" parent="1">
          <mxGeometry x="225" y="515" width="90" height="30" as="geometry" />
        </mxCell>
        <mxCell id="SnW519qvEG8OO5aZFgQu-81" value="" style="shape=flexArrow;endArrow=classic;startArrow=classic;html=1;rounded=0;fontSize=18;strokeWidth=1;fillColor=#666666;endWidth=12;endSize=2.47;startWidth=12;startSize=2.47;width=4;entryX=0;entryY=0.5;entryDx=0;entryDy=0;" edge="1" parent="1" target="SnW519qvEG8OO5aZFgQu-4">
          <mxGeometry width="100" height="100" relative="1" as="geometry">
            <mxPoint x="252" y="292" as="sourcePoint" />
            <mxPoint x="502" y="87" as="targetPoint" />
          </mxGeometry>
        </mxCell>
        <mxCell id="SnW519qvEG8OO5aZFgQu-82" value="" style="shape=flexArrow;endArrow=classic;startArrow=classic;html=1;rounded=0;fontSize=18;strokeWidth=1;fillColor=#666666;endWidth=12;endSize=2.47;startWidth=12;startSize=2.47;width=4;entryX=0;entryY=0.5;entryDx=0;entryDy=0;" edge="1" parent="1" target="SnW519qvEG8OO5aZFgQu-13">
          <mxGeometry width="100" height="100" relative="1" as="geometry">
            <mxPoint x="252" y="411" as="sourcePoint" />
            <mxPoint x="307" y="302" as="targetPoint" />
          </mxGeometry>
        </mxCell>
        <mxCell id="SnW519qvEG8OO5aZFgQu-83" value="" style="shape=curlyBracket;whiteSpace=wrap;html=1;rounded=1;labelBackgroundColor=none;fontSize=14;fontColor=#FFFFFF;fillColor=#000000;dashed=1;" vertex="1" parent="1">
          <mxGeometry x="222" y="248.5" width="20" height="200" as="geometry" />
        </mxCell>
        <mxCell id="SnW519qvEG8OO5aZFgQu-85" value="横向边流" style="text;html=1;strokeColor=none;fillColor=none;align=center;verticalAlign=middle;whiteSpace=wrap;rounded=0;labelBackgroundColor=none;fontSize=14;fontColor=#000000;" vertex="1" parent="1">
          <mxGeometry x="152" y="333.5" width="60" height="30" as="geometry" />
        </mxCell>
        <mxCell id="SnW519qvEG8OO5aZFgQu-86" value="" style="shape=curlyBracket;whiteSpace=wrap;html=1;rounded=1;labelBackgroundColor=none;fontSize=14;fontColor=#FFFFFF;fillColor=#000000;dashed=1;rotation=90;" vertex="1" parent="1">
          <mxGeometry x="570" y="-79" width="20" height="286" as="geometry" />
        </mxCell>
        <mxCell id="SnW519qvEG8OO5aZFgQu-87" value="纵向边流" style="text;html=1;strokeColor=none;fillColor=none;align=center;verticalAlign=middle;whiteSpace=wrap;rounded=0;labelBackgroundColor=none;fontSize=14;fontColor=#000000;" vertex="1" parent="1">
          <mxGeometry x="550" y="30" width="60" height="30" as="geometry" />
        </mxCell>
        <mxCell id="SnW519qvEG8OO5aZFgQu-89" value="" style="shape=curlyBracket;whiteSpace=wrap;html=1;rounded=1;labelBackgroundColor=none;fontSize=14;fontColor=#FFFFFF;fillColor=#000000;dashed=1;rotation=-90;" vertex="1" parent="1">
          <mxGeometry x="570" y="505" width="20" height="286" as="geometry" />
        </mxCell>
        <mxCell id="SnW519qvEG8OO5aZFgQu-90" value="输出边流" style="text;html=1;strokeColor=none;fillColor=none;align=center;verticalAlign=middle;whiteSpace=wrap;rounded=0;labelBackgroundColor=none;fontSize=14;fontColor=#000000;" vertex="1" parent="1">
          <mxGeometry x="551" y="659" width="60" height="30" as="geometry" />
        </mxCell>
        <mxCell id="SnW519qvEG8OO5aZFgQu-92" value="" style="shape=flexArrow;endArrow=classic;startArrow=classic;html=1;rounded=0;fontSize=14;fontColor=#000000;strokeWidth=1;fillColor=#666666;entryX=0;entryY=0.5;entryDx=0;entryDy=0;" edge="1" parent="1" target="SnW519qvEG8OO5aZFgQu-1">
          <mxGeometry width="100" height="100" relative="1" as="geometry">
            <mxPoint x="70" y="152" as="sourcePoint" />
            <mxPoint x="120" y="130" as="targetPoint" />
          </mxGeometry>
        </mxCell>
        <mxCell id="SnW519qvEG8OO5aZFgQu-93" value="" style="shape=flexArrow;endArrow=classic;startArrow=classic;html=1;rounded=0;fontSize=14;fontColor=#000000;strokeWidth=1;fillColor=#666666;entryX=0;entryY=0.5;entryDx=0;entryDy=0;" edge="1" parent="1">
          <mxGeometry width="100" height="100" relative="1" as="geometry">
            <mxPoint x="68" y="530" as="sourcePoint" />
            <mxPoint x="130" y="530" as="targetPoint" />
          </mxGeometry>
        </mxCell>
      </root>
    </mxGraphModel>
  </diagram>
</mxfile>
